<?xml version="1.0" standalone="no"?>
<!DOCTYPE svg PUBLIC "-//W3C//DTD SVG 20010904//EN"
 "http://www.w3.org/TR/2001/REC-SVG-20010904/DTD/svg10.dtd">
<svg version="1.0" xmlns="http://www.w3.org/2000/svg"
 width="16.000000pt" height="16.000000pt" viewBox="0 0 16.000000 16.000000"
 preserveAspectRatio="xMidYMid meet">
<metadata>
Created by potrace 1.11, written by Peter Selinger 2001-2013
</metadata>
<g transform="translate(0.000000,16.000000) scale(0.015842,-0.015842)"
fill="#000000" stroke="none">
<path d="M655 939 c-60 -32 -72 -46 -119 -138 -28 -56 -64 -107 -102 -146 -33
-33 -91 -108 -129 -165 -44 -66 -84 -114 -108 -129 -37 -24 -38 -25 -18 -41
20 -15 19 -16 -25 -65 -54 -60 -89 -117 -103 -168 -8 -32 -7 -38 4 -33 8 2 15
0 17 -6 2 -6 12 2 23 18 41 64 138 164 179 183 76 37 246 20 238 -24 -6 -30 7
-65 24 -65 14 0 14 2 0 22 -22 31 -20 43 10 57 22 10 31 9 51 -4 30 -20 46
-10 19 11 -12 8 -39 13 -67 12 -27 -1 -51 1 -55 5 -27 26 73 24 146 -3 52 -19
62 -27 67 -52 8 -40 23 -45 16 -5 -7 44 16 65 54 48 14 -6 27 -10 30 -8 2 2
-11 10 -28 17 -24 10 -36 11 -49 2 -19 -11 -50 -6 -102 18 -35 16 -35 23 -2
41 41 21 131 127 160 186 33 67 41 129 22 185 -12 36 -12 47 -1 68 7 14 11 31
8 37 -4 11 48 57 101 89 27 16 15 23 -44 28 -31 3 -64 13 -81 25 -37 27 -86
27 -136 0z"/>
</g>
</svg>
